<svg height="100%" version="1.1" width="100%" xmlns="http://www.w3.org/2000/svg" preserveAspectRatio="xMidYMid meet" viewBox="0 0 600 442" xmlns:xlink="http://www.w3.org/1999/xlink"><desc>Created with Snap</desc><defs/><g id="root" contentwidth="268.69999999999993" contentheight="197.60000000000002">
          <rect class="background" height="2000%" width="2000%" y="-1000%" x="-1000%" style="" fill="#ffffff"/>
          <rect class="watermarklayer" height="100%" width="100%" y="0" x="0" style="" fill="none"/>
          <g class="content" id="content" transform="matrix(1,0,0,1,-0.35,-0.8)">
            <g class="icon">
            <svg height="106" version="1.1" width="121" xmlns="http://www.w3.org/2000/svg" x="312" y="123" preserveAspectRatio="none" transform="matrix(1,0,0,1,0,0)"><desc>Created with Snap</desc><defs/><svg xmlns="http://www.w3.org/2000/svg" viewBox="312 123 121 106"><defs><linearGradient x1="50%" y1="0%" x2="50%" y2="100%" id="prefix-hE3-linearGradient-1"><stop stop-color="#3555D4" offset="0%"/><stop stop-color="#5589F5" offset="100%"/></linearGradient><linearGradient x1="50%" y1="0%" x2="50%" y2="100%" id="prefix-hE3-linearGradient-2"><stop stop-color="#23315B" offset="0%"/><stop stop-color="#2B325B" offset="100%"/></linearGradient><linearGradient x1="50%" y1="0%" x2="50%" y2="100%" id="prefix-hE3-linearGradient-3"><stop stop-color="#5589F5" offset="0%"/><stop stop-color="#3555D4" offset="100%"/></linearGradient></defs><path d="M312 123h46.455a28.8 28.8 0 0 1 25.332 15.1l49.161 90.9h-46.455a28.8 28.8 0 0 1-25.332-15.1L312 123Z" id="prefix-hE3-矩形备份" fill="url(#prefix-hE3-linearGradient-1)"/></svg></svg><svg height="106" version="1.1" width="121" xmlns="http://www.w3.org/2000/svg" x="240" y="123" preserveAspectRatio="none" transform="matrix(1,0,0,1,0,0)"><desc>Created with Snap</desc><defs/><svg xmlns="http://www.w3.org/2000/svg" viewBox="240 123 121 106"><defs><linearGradient x1="50%" y1="0%" x2="50%" y2="100%" id="prefix-jKv-linearGradient-1"><stop stop-color="#3555D4" offset="0%"/><stop stop-color="#5589F5" offset="100%"/></linearGradient><linearGradient x1="50%" y1="0%" x2="50%" y2="100%" id="prefix-jKv-linearGradient-2"><stop stop-color="#23315B" offset="0%"/><stop stop-color="#2B325B" offset="100%"/></linearGradient><linearGradient x1="50%" y1="0%" x2="50%" y2="100%" id="prefix-jKv-linearGradient-3"><stop stop-color="#5589F5" offset="0%"/><stop stop-color="#3555D4" offset="100%"/></linearGradient></defs><path d="M239.743 123h46.454a28.8 28.8 0 0 1 25.333 15.1l49.16 90.9h-46.454a28.8 28.8 0 0 1-25.333-15.1l-49.16-90.9Z" id="prefix-jKv-矩形备份-2" fill="url(#prefix-jKv-linearGradient-2)" transform="matrix(-1 0 0 1 600.433 0)"/></svg></svg><svg height="70" version="1.1" width="70" xmlns="http://www.w3.org/2000/svg" x="227" y="141" preserveAspectRatio="none" transform="matrix(1,0,0,1,0,0)"><desc>Created with Snap</desc><defs/><svg xmlns="http://www.w3.org/2000/svg" viewBox="227 141 70 70"><defs><linearGradient x1="50%" y1="0%" x2="50%" y2="100%" id="prefix-Avq-linearGradient-1"><stop stop-color="#3555D4" offset="0%"/><stop stop-color="#5589F5" offset="100%"/></linearGradient><linearGradient x1="50%" y1="0%" x2="50%" y2="100%" id="prefix-Avq-linearGradient-2"><stop stop-color="#23315B" offset="0%"/><stop stop-color="#2B325B" offset="100%"/></linearGradient><linearGradient x1="50%" y1="0%" x2="50%" y2="100%" id="prefix-Avq-linearGradient-3"><stop stop-color="#5589F5" offset="0%"/><stop stop-color="#3555D4" offset="100%"/></linearGradient></defs><circle id="prefix-Avq-椭圆形" fill="#33C8F5" cx="262" cy="176" r="35"/></svg></svg><svg height="106" version="1.1" width="121" xmlns="http://www.w3.org/2000/svg" x="166" y="123" preserveAspectRatio="none" transform="matrix(1,0,0,1,0,0)"><desc>Created with Snap</desc><defs/><svg xmlns="http://www.w3.org/2000/svg" viewBox="166 123 121 106"><defs><linearGradient x1="50%" y1="0%" x2="50%" y2="100%" id="prefix-vE9-linearGradient-1"><stop stop-color="#3555D4" offset="0%"/><stop stop-color="#5589F5" offset="100%"/></linearGradient><linearGradient x1="50%" y1="0%" x2="50%" y2="100%" id="prefix-vE9-linearGradient-2"><stop stop-color="#23315B" offset="0%"/><stop stop-color="#2B325B" offset="100%"/></linearGradient><linearGradient x1="50%" y1="0%" x2="50%" y2="100%" id="prefix-vE9-linearGradient-3"><stop stop-color="#5589F5" offset="0%"/><stop stop-color="#3555D4" offset="100%"/></linearGradient></defs><path d="M166 123h46.455a28.8 28.8 0 0 1 25.332 15.1l49.161 90.9h-46.455a28.8 28.8 0 0 1-25.332-15.1L166 123Z" id="prefix-vE9-矩形" fill="url(#prefix-vE9-linearGradient-3)"/></svg></svg></g>
            <g id="icon_name_and_slogan_gap">
            </g>
            <g class="name_and_slogan" id="name_and_slogan_id">
              <g class="name"><g id="nameDefaultGroup"><path d="M209.4 288.6 L213 293.1 L204.6 299 L200.6 292.8 Q196.5 293.8 192.5 293.8 Q185.3 293.8 179.6 291.1 Q173.9 288.4 170.6 283.4 Q167.4 278.5 167.4 271.9 Q167.4 265.2 170.7 260.2 Q173.9 255.2 179.6 252.5 Q185.3 249.8 192.5 249.8 Q199.7 249.8 205.3 252.5 Q210.9 255.3 214.1 260.3 Q217.4 265.3 217.4 271.9 Q217.4 277.2 215.3 281.5 Q213.2 285.7 209.4 288.6 Z M195.1 284.6 L192.4 280.5 L199.2 276 L202.9 280.6 Q204.6 278.8 205.4 276.4 Q206.3 274 206.3 271.4 Q206.3 267.8 204.7 264.8 Q203.1 261.7 200 259.9 Q196.8 258 192.5 258 Q188 258 184.9 259.9 Q181.7 261.7 180.1 264.8 Q178.5 267.8 178.5 271.4 Q178.5 274.9 180.2 278 Q181.8 281.1 184.9 282.9 Q188.1 284.8 192.5 284.8 Q193.8 284.8 195.1 284.6 Z M237.2 279.6 Q237.2 282.4 238.6 284.2 Q240.1 285.9 242.3 285.9 Q244.9 285.9 246.6 284.1 Q248.2 282.3 248.3 278.7 L248.3 263.8 L259.4 263.8 L259.4 293.4 L248.6 293.4 L248.5 289.3 Q247.1 291.5 244.4 292.8 Q241.8 294.1 238.4 294.1 Q231.8 294.1 228.7 291 Q225.6 287.9 225.6 281.6 L225.6 263.8 L237.2 263.8 L237.2 279.6 Z M276.9 255.6 Q280.4 252.8 284.8 251.3 Q289.3 249.8 293.9 249.8 Q304.5 249.8 312.6 254.8 L309.1 262.3 Q306 260 302.8 259 Q299.6 258 295.1 258 Q291.3 258 288 259.7 Q284.7 261.4 282.7 264.5 Q280.8 267.6 280.8 271.6 Q280.8 275.5 282.8 278.4 Q284.8 281.3 288.5 282.9 Q292.1 284.5 296.7 284.5 Q299.7 284.5 303 283.9 Q306.3 283.2 308.4 282.2 L313.1 288.9 Q310.3 291.1 305.5 292.4 Q300.7 293.8 295.2 293.8 Q289.7 293.8 285 292.2 Q280.2 290.7 276.7 287.7 Q273.1 284.7 271.1 280.5 Q269.1 276.4 269.1 271.4 Q269.1 266.5 271.1 262.5 Q273.2 258.4 276.9 255.6 Z M333 267.2 Q338.3 262.6 343.1 262.6 Q348.8 262.6 352.2 266 Q355.6 269.5 355.6 275.7 L355.6 292.9 L344 292.9 L344 276.9 Q344 273.7 342.5 271.9 Q341.1 270.1 338.5 270.1 Q336.2 270.1 334.6 272.1 Q333 274.1 333 277.4 L333 292.9 L321.6 292.9 L321.6 249.3 L333 249.3 L333 267.2 Z M381.7 286.1 Q385 286.1 387.4 285.3 Q389.9 284.6 392 283.1 L395.6 288.7 Q393.2 291.3 389.1 292.7 Q384.9 294.1 379.3 294.1 Q373.9 294.1 369.6 292.2 Q365.4 290.4 363 286.9 Q360.6 283.4 360.6 278.9 Q360.6 274.4 362.8 270.8 Q365 267.1 369.1 265 Q373.1 262.9 378.5 262.9 Q386.8 262.9 391.6 267.4 Q396.3 271.9 396.2 280.1 L372.1 280.1 Q372.7 283.1 375.2 284.6 Q377.8 286.1 381.7 286.1 Z M378.5 269.3 Q375.7 269.3 374 270.9 Q372.2 272.5 372.2 275.1 L384.4 275.1 Q384.4 272.6 382.7 271 Q381.1 269.3 378.5 269.3 Z M412.3 268 Q414.5 265.6 417.2 264.3 Q419.8 262.9 422.5 262.9 Q428.9 262.9 431.8 266.6 Q434.7 270.3 434.7 276.6 L434.7 293.3 L423.3 293.3 L423.3 276.5 Q423.3 273.6 421.6 272.1 Q419.9 270.7 417.3 270.7 Q415.1 270.7 413.6 272.4 Q412 274.2 412 276.7 L412 293.3 L400.6 293.3 L400.6 263.8 L412.5 263.8 L412.3 268 Z" style="" fill="#000000" transform="matrix(1,0,0,1,0,0)"/></g></g>
              <g class="slogan"><g id="sloganDefaultGroup"><path d="M240.3 309.4 Q240.5 309.7 240.9 310.2 Q241.2 310.6 241.5 311.2 Q241.9 311.7 242.2 312.3 Q242.5 312.8 242.8 313.3 L242 313.8 Q241.7 313.3 241.4 312.8 Q241.1 312.2 240.8 311.6 Q240.4 311.1 240.1 310.6 Q239.8 310.2 239.6 309.8 L240.3 309.4 Z M239.6 318.2 Q239.6 318.5 239.7 318.6 Q239.8 318.8 240.1 318.9 Q240.3 318.9 240.6 318.9 Q240.9 318.9 241.2 318.9 Q241.5 318.9 241.8 318.9 Q242.1 318.9 242.3 318.9 Q242.5 318.8 242.6 318.8 Q242.7 318.7 242.8 318.7 Q242.9 318.6 242.9 318.5 Q242.9 318.3 242.9 318.2 Q243 318 243 317.7 Q243 317.5 243 317.3 Q243.1 317.1 243.1 316.9 L244 317.2 Q243.9 317.4 243.9 317.6 Q243.9 318.1 243.8 318.6 Q243.7 319 243.6 319.2 Q243.5 319.4 243.4 319.5 Q243.2 319.6 243 319.7 Q242.9 319.8 242.6 319.8 Q242.4 319.8 242 319.8 Q241.7 319.8 241.2 319.8 Q240.8 319.8 240.4 319.8 Q240 319.8 239.7 319.8 Q239.1 319.7 238.8 319.4 Q238.6 319 238.6 318.4 L238.6 312 L239.6 312.1 L239.6 318.2 Z M244.5 312.6 Q244.7 312.9 244.9 313.4 Q245.1 314 245.4 314.6 Q245.6 315.2 245.9 315.9 Q246.1 316.5 246.3 317.1 L245.4 317.5 Q245.2 316.9 245 316.3 Q244.8 315.6 244.5 315 Q244.3 314.3 244.1 313.8 Q243.9 313.3 243.7 313 L244.5 312.6 Z M237.6 313 Q237.5 313.5 237.4 314.1 Q237.3 314.7 237.2 315.4 Q237 316.1 236.9 316.8 Q236.7 317.4 236.5 318 L235.5 317.8 Q235.8 317.2 235.9 316.5 Q236.1 315.9 236.2 315.2 Q236.4 314.5 236.5 313.9 Q236.6 313.3 236.7 312.8 L237.6 313 Z M255.2 318.6 Q256.5 318.7 257.7 318.7 Q258.9 318.7 260.1 318.6 L259.9 319.5 Q257.6 319.6 255.3 319.5 Q254.5 319.5 254 319.4 Q253.5 319.4 253.1 319.3 Q252.7 319.2 252.4 319 Q252.1 318.8 251.8 318.5 Q251.6 318.2 251.4 318.1 Q251.3 318 251.2 318 Q251.1 318 251 318.1 Q250.9 318.2 250.7 318.4 Q250.6 318.6 250.3 319 Q250.1 319.2 249.9 319.5 L249.2 318.8 Q249.5 318.5 249.8 318.1 Q250.1 317.7 250.4 317.3 Q250.6 317 250.8 317 Q251 316.9 251.2 316.9 Q251.3 316.9 251.5 317 Q252.4 316.5 253.2 315.9 Q254.2 315.3 254.9 314.7 Q255.8 314 256.5 313.5 Q257.2 312.8 257.7 312.3 L250.4 312.3 L250.4 311.4 L254.5 311.4 Q254.4 311.2 254.4 311 Q254.3 310.7 254.2 310.4 Q254.2 310.2 254.1 309.9 Q254 309.7 254 309.5 L254.9 309.4 Q254.9 309.5 255 309.8 Q255.1 310 255.2 310.3 Q255.2 310.6 255.3 310.9 Q255.4 311.2 255.4 311.4 L259 311.4 L259 312.3 Q258.4 313 257.6 313.7 Q256.9 314.4 256 315.1 Q255.1 315.8 254.1 316.4 Q253.2 317.1 252.2 317.6 Q252.5 317.9 252.8 318.1 Q253 318.3 253.4 318.4 Q253.7 318.5 254.1 318.6 Q254.6 318.6 255.2 318.6 Z M273.9 314.2 L272.2 314.2 L272.2 320.1 L271.3 320.1 L271.3 314.2 L269.5 314.2 Q269.5 315.3 269.4 316.1 Q269.4 316.9 269.1 317.6 Q268.9 318.3 268.5 318.9 Q268.1 319.6 267.6 320.3 L266.8 319.7 Q267.4 319 267.8 318.5 Q268.1 317.9 268.4 317.3 Q268.6 316.6 268.6 315.9 Q268.7 315.1 268.7 314 L268.7 310.6 Q269.3 310.5 269.9 310.4 Q270.5 310.3 271 310.2 Q271.6 310.1 272.1 310 Q272.6 309.8 273.1 309.7 L273.3 310.5 Q272.5 310.8 271.5 311 Q270.5 311.3 269.5 311.4 L269.5 313.4 L273.9 313.4 L273.9 314.2 Z M265 316.5 Q264.9 317.1 264.8 317.6 Q264.8 318.1 264.6 318.5 Q264.5 319 264.3 319.4 Q264.1 319.8 263.9 320.3 L263.1 319.8 Q263.4 319.2 263.6 318.7 Q263.8 318.1 264 317.5 Q264.1 316.9 264.1 316.1 Q264.2 315.3 264.2 314.1 L264.2 310.4 Q265.3 310.3 266.2 310.2 Q267.2 310 268 309.7 L268.2 310.6 Q267.5 310.8 266.7 311 Q265.9 311.1 265.1 311.2 L265.1 312.6 L267.6 312.6 L267.6 316.5 L265 316.5 Z M265.1 313.5 L265.1 314.2 Q265.1 314.6 265 315 Q265 315.3 265 315.7 L266.7 315.7 L266.7 313.5 L265.1 313.5 Z M286.7 310.9 L286.7 318.6 Q286.7 319 286.6 319.2 Q286.6 319.5 286.4 319.6 Q286.2 319.8 285.8 319.8 Q285.5 319.9 285 319.9 L284.3 320 L284 319.1 L284.9 319 Q285.2 319 285.4 319 Q285.6 318.9 285.7 318.9 Q285.8 318.8 285.8 318.6 Q285.8 318.5 285.8 318.3 L285.8 311.7 L278.7 311.7 L278.7 320 L277.8 320 L277.8 310.9 L280.8 310.9 Q281 310.6 281 310.4 Q281.1 310.2 281.2 310 Q281.3 309.7 281.4 309.5 Q281.5 309.3 281.5 309.1 L282.6 309.2 Q282.5 309.5 282.3 310 Q282.2 310.5 282 310.9 L286.7 310.9 Z M284.4 317.7 L280.1 317.7 L280.1 313.4 L284.4 313.4 L284.4 317.7 Z M283.5 314.3 L281 314.3 L281 316.8 L283.5 316.8 L283.5 314.3 Z M291.9 320.6 Q292.1 320.3 292.3 319.8 Q292.5 319.4 292.7 319 Q292.8 318.6 292.9 318.2 Q293 317.8 293 317.5 L294 317.5 Q294 317.9 293.9 318.3 Q293.7 318.7 293.6 319.2 Q293.4 319.6 293.2 320 Q292.9 320.3 292.7 320.6 L291.9 320.6 Z M313.5 317.3 Q313 317.3 312.2 317.3 Q311.4 317.3 310.5 317.3 L310.5 318.8 Q310.5 319.1 310.4 319.4 Q310.4 319.6 310.2 319.7 Q310 319.9 309.7 320 Q309.4 320 309 320.1 L308.4 320.1 L308.1 319.2 L308.8 319.2 Q309 319.2 309.2 319.1 Q309.3 319.1 309.4 319 Q309.5 319 309.6 318.8 Q309.6 318.7 309.6 318.5 L309.6 317.3 Q309.1 317.4 308.7 317.4 Q308.3 317.4 307.9 317.4 Q307.5 317.4 307.2 317.5 Q306.9 317.5 306.8 317.5 Q306.5 317.5 306.1 317.5 Q305.8 317.5 305.5 317.6 L305.4 316.8 Q305.7 316.8 305.9 316.8 Q306.2 316.7 306.5 316.7 Q307.2 316.5 308 316.2 Q308.8 315.9 309.5 315.5 Q309.1 315.5 308.7 315.5 Q308.3 315.6 308 315.6 Q307.6 315.6 307.4 315.6 Q307.1 315.6 306.9 315.6 Q306.8 315.6 306.5 315.6 Q306.2 315.6 306 315.7 L305.9 315 Q306.3 315 306.5 315 Q306.6 314.9 306.8 314.8 Q307.2 314.7 307.7 314.4 Q308.1 314.2 308.6 313.9 L304.7 313.9 L304.7 313.2 L309.5 313.2 L309.5 312.4 L305.8 312.4 L305.8 311.7 L309.5 311.7 L309.5 310.9 L305.2 310.9 L305.2 310.2 L309.5 310.2 L309.5 309.3 L310.4 309.4 L310.4 310.2 L314.7 310.2 L314.7 310.9 L310.4 310.9 L310.4 311.7 L314.1 311.7 L314.1 312.4 L310.4 312.4 L310.4 313.2 L315.2 313.2 L315.2 313.9 L312.4 313.9 L312.9 314.5 Q311.8 315.2 310.7 315.7 Q309.7 316.3 308.5 316.7 Q308.9 316.7 309.4 316.7 Q309.9 316.6 310.5 316.6 Q311.1 316.6 311.6 316.6 Q312.2 316.5 312.6 316.5 Q312.4 316.3 312.2 316.2 Q312 316 311.8 315.9 L312.3 315.4 Q312.6 315.5 312.9 315.8 Q313.2 316 313.6 316.3 Q313.9 316.6 314.2 316.9 Q314.5 317.1 314.7 317.3 L314.2 318 Q314.1 317.8 313.9 317.7 Q313.7 317.5 313.5 317.3 Z M308.1 314.9 Q308.4 314.9 308.7 314.9 Q309 314.9 309.4 314.9 Q309.8 314.9 310.1 314.9 Q310.4 314.9 310.7 314.9 Q311.2 314.6 311.6 314.4 Q312 314.1 312.4 313.9 L309.3 313.9 L309.6 314.1 Q309.2 314.4 308.9 314.5 Q308.5 314.7 308.1 314.9 Z M311.8 317.6 Q312.1 317.7 312.6 317.9 Q313.1 318.1 313.6 318.4 Q314.1 318.6 314.5 318.8 Q315 319.1 315.3 319.2 L315 320 Q314.6 319.8 314.1 319.5 Q313.6 319.3 313.1 319 Q312.6 318.8 312.2 318.6 Q311.7 318.4 311.4 318.3 L311.8 317.6 Z M308.2 318.3 Q307.9 318.5 307.5 318.8 Q307 319 306.6 319.2 Q306.1 319.5 305.6 319.7 Q305.2 319.9 304.9 320 L304.5 319.2 Q304.8 319.1 305.3 319 Q305.7 318.8 306.2 318.5 Q306.6 318.3 307.1 318.1 Q307.5 317.8 307.8 317.7 L308.2 318.3 Z M329.1 320.2 Q328.1 320 327.3 319.8 Q326.5 319.6 325.8 319.3 Q325.2 319.6 324.4 319.8 Q323.7 320 322.7 320.2 L322.4 319.5 Q323.2 319.4 323.8 319.2 Q324.5 319.1 325 318.9 Q324.4 318.5 323.8 318 Q323.3 318.5 322.7 318.9 L322.3 318.4 Q322.8 318 323.3 317.6 Q323.8 317.1 324.1 316.5 L323.4 316.5 L323.4 314.4 L323 314.8 L322.6 314.2 Q323.1 313.8 323.4 313.2 Q323.8 312.7 324.1 312.1 L322.4 312.1 L322.9 312.5 Q322.7 312.8 322.4 313.2 Q322.2 313.5 321.9 313.8 Q321.6 314.2 321.4 314.5 Q321.1 314.8 320.8 315 L320.4 314.5 Q320.4 315.5 320.3 316.3 Q320.2 317.1 320 317.8 Q319.9 318.5 319.6 319.1 Q319.4 319.7 319.1 320.3 L318.3 319.9 Q318.7 319.2 318.9 318.6 Q319.2 318 319.3 317.3 Q319.5 316.6 319.5 315.7 Q319.6 314.9 319.6 313.8 L319.6 309.9 L328.4 309.9 L328.4 312.1 L324.2 312.1 L324.8 312.3 Q324.7 312.5 324.5 312.8 L328.8 312.8 L328.8 313.4 L324.1 313.4 Q324.1 313.5 323.9 313.7 Q323.8 313.8 323.7 314 L328.2 314 L328.2 316.5 L324.5 316.5 L324.8 316.7 Q324.8 316.8 324.7 317 Q324.6 317.1 324.5 317.2 L328.2 317.2 L328.2 317.7 Q327.9 318.1 327.5 318.4 Q327.1 318.7 326.6 318.9 Q327.8 319.3 329.3 319.5 L329.1 320.2 Z M320.4 310.6 L320.4 311.4 L327.6 311.4 L327.6 310.6 L320.4 310.6 Z M320.4 314.4 Q320.7 314.2 320.9 313.9 Q321.2 313.6 321.4 313.3 Q321.6 313 321.9 312.7 Q322.1 312.4 322.3 312.1 L320.4 312.1 L320.4 313.9 L320.4 314.4 Z M322.8 314.8 Q322.7 315.1 322.5 315.4 Q322.3 315.7 322.1 316 L322.1 320.2 L321.4 320.2 L321.4 317 Q321.2 317.2 321.1 317.3 Q320.9 317.5 320.7 317.7 L320.3 317.1 Q320.8 316.6 321.3 315.9 Q321.8 315.2 322.2 314.5 L322.8 314.8 Z M324.1 314.5 L324.1 315 L327.4 315 L327.4 314.5 L324.1 314.5 Z M324.1 316 L327.4 316 L327.4 315.5 L324.1 315.5 L324.1 316 Z M324.4 317.7 Q324.7 318 325 318.2 Q325.4 318.4 325.8 318.6 Q326.3 318.4 326.6 318.2 Q326.9 317.9 327.2 317.7 L324.4 317.7 Z M337.5 313.3 Q337.3 312.8 337.1 312.4 Q336.8 311.9 336.6 311.5 Q336.3 311 336.1 310.7 Q335.8 310.3 335.6 310 L336.4 309.6 Q336.6 309.8 336.8 310.2 Q337.1 310.6 337.3 311 Q337.6 311.4 337.8 311.8 Q338.1 312.3 338.3 312.7 L337.5 313.3 Z M340.5 316.4 Q340.8 316.7 341.2 317 Q341.5 317.3 341.8 317.7 Q342.1 318 342.4 318.4 Q342.7 318.7 343 319.1 L342.3 319.8 Q342.1 319.5 341.8 319.1 Q341.5 318.7 341.2 318.4 Q340.9 318 340.6 317.7 Q340.4 317.4 340.1 317.2 Q339.6 318 338.7 318.7 Q337.8 319.4 336.4 320.2 L335.8 319.4 Q337.1 318.7 338 318 Q338.8 317.3 339.3 316.5 Q339.8 315.7 340 314.8 Q340.3 313.8 340.4 312.6 Q340.4 312.3 340.4 311.8 Q340.4 311.3 340.4 310.8 Q340.4 310.3 340.4 309.7 L341.3 309.7 L341.3 310.8 Q341.3 311.3 341.3 311.8 Q341.3 312.3 341.3 312.6 Q341.2 313.8 341.1 314.7 Q340.9 315.7 340.5 316.4 Z M337.7 315.8 Q337.5 315.9 337.3 316.1 Q337 316.3 336.7 316.6 Q336.3 316.9 336 317.2 Q335.6 317.5 335.3 317.8 Q334.9 318.1 334.6 318.3 Q334.3 318.5 334.2 318.7 Q334 318.8 333.8 319 Q333.5 319.3 333.4 319.5 L332.8 318.7 Q333 318.5 333.1 318.3 Q333.2 318.1 333.2 317.9 L333.2 309.9 L334.1 310 L334.1 317.5 Q334.2 317.5 334.4 317.3 Q334.7 317.1 335 316.8 Q335.3 316.5 335.6 316.2 Q336 316 336.3 315.7 Q336.6 315.5 336.8 315.3 Q337.1 315.1 337.1 315 L337.7 315.8 Z M356.6 318.8 L356.6 319.6 L349.2 319.6 L349.2 318.8 L352.4 318.8 L352.4 315.7 L349.8 315.7 L349.8 314.8 L352.4 314.8 L352.4 312.2 L349.6 312.2 L349.6 311.3 L352.5 311.3 Q352.5 311.1 352.4 310.8 Q352.3 310.5 352.2 310.3 Q352.2 310 352.1 309.8 Q352 309.6 352 309.5 L352.9 309.3 Q352.9 309.5 353 309.7 Q353.1 310 353.2 310.3 Q353.3 310.5 353.3 310.8 Q353.4 311.1 353.5 311.3 L356.3 311.3 L356.3 312.2 L353.3 312.2 L353.3 314.8 L356 314.8 L356 315.7 L353.3 315.7 L353.3 318.8 L356.6 318.8 Z M349.6 310 Q349.4 310.3 349 310.8 Q348.7 311.2 348.3 311.6 Q347.9 312.1 347.5 312.5 Q347 312.9 346.7 313.2 L346.1 312.5 Q346.4 312.2 346.8 311.9 Q347.2 311.5 347.6 311 Q348 310.6 348.4 310.2 Q348.7 309.8 348.9 309.5 L349.6 310 Z M349.5 313 Q349.3 313.4 349.1 313.8 Q348.8 314.2 348.5 314.5 L348.5 320.2 L347.6 320.2 L347.6 315.6 Q347.3 315.9 347 316.3 Q346.7 316.6 346.3 316.9 L345.8 316.2 Q346.2 315.9 346.6 315.4 Q347 315 347.4 314.5 Q347.9 314 348.2 313.5 Q348.5 313 348.8 312.5 L349.5 313 Z" style="" fill="#000000" transform="matrix(1,0,0,1,0,0)"/></g></g>
            </g>
            <g class="border">
            </g>
          </g>
          <defs id="defs">
            <mask xmlns="http://www.w3.org/2000/svg" id="mask">
                <rect id="showAll" fill="white" x="166" y="123" width="267" height="106"/>
                <rect id="hideNameBg" fill="black" x="0" y="0" width="0" height="0" stroke-width="2" stroke="black"/>
                <rect id="hideSloganBg" fill="black" x="0" y="0" width="0" height="0" stroke-width="2" stroke="black"/>
            </mask>
          
          </defs>
        </g>
        </svg>